<?xml version="1.0" standalone="no"?>
<!DOCTYPE svg PUBLIC "-//W3C//DTD SVG 20010904//EN"
 "http://www.w3.org/TR/2001/REC-SVG-20010904/DTD/svg10.dtd">
<svg version="1.0" xmlns="http://www.w3.org/2000/svg"
 width="130.000000pt" height="137.000000pt" viewBox="0 0 130.000000 137.000000"
 preserveAspectRatio="xMidYMid meet">

<g transform="translate(0.000000,137.000000) scale(0.100000,-0.100000)"
fill="#000000" stroke="none">
<path d="M20 938 c0 -448 5 -489 63 -613 50 -103 130 -186 231 -235 115 -57
201 -73 366 -67 110 4 148 9 207 30 181 63 293 175 348 350 25 78 25 78 25
508 l0 429 -620 0 -620 0 0 -402z m1070 -118 c0 -307 -1 -333 -20 -384 -40
-107 -112 -176 -228 -219 -78 -29 -299 -31 -382 -4 -118 40 -197 113 -242 225
-21 54 -22 73 -26 371 -1 173 -1 320 2 328 4 11 87 13 451 13 l445 0 0 -330z
m-986 -190 c3 0 14 17 25 38 l20 37 1 -82 c1 -234 95 -381 285 -445 50 -16 50
-17 53 -63 4 -53 9 -52 -97 -14 -80 29 -133 63 -189 123 -95 100 -143 234
-141 397 l0 94 19 -42 c11 -24 22 -43 24 -43z m1125 -69 c-16 -161 -66 -269
-167 -361 -69 -64 -91 -72 -99 -40 -3 11 -9 20 -14 20 -14 0 -11 -17 6 -34 9
-8 11 -17 6 -21 -26 -15 -139 -53 -145 -48 -3 4 -6 24 -6 45 0 28 5 40 18 44
9 3 49 21 89 40 148 71 222 209 223 417 l1 82 20 -38 c23 -43 33 -41 50 11
l13 37 7 -39 c3 -21 3 -73 -2 -115z m-158 -184 c-10 -9 -11 -8 -5 6 3 10 9 15
12 12 3 -3 0 -11 -7 -18z m-843 -12 c-3 -3 -9 2 -12 12 -6 14 -5 15 5 6 7 -7
10 -15 7 -18z m812 -38 c0 -2 -10 -12 -22 -23 l-23 -19 19 23 c18 21 26 27 26
19z m-100 -92 c-7 -8 -17 -15 -23 -15 -6 0 -2 7 9 15 25 19 30 19 14 0z m-140
-135 l0 -50 -150 0 -150 0 0 50 0 50 150 0 150 0 0 -50z"/>
<path d="M314 1105 c-22 -16 -12 -42 21 -55 14 -5 25 -14 25 -20 0 -14 -37
-12 -43 3 -2 6 -8 9 -12 5 -15 -14 5 -38 33 -38 59 0 70 44 16 66 -27 11 -34
18 -26 26 8 8 16 8 27 -2 19 -15 34 -5 17 12 -17 17 -38 18 -58 3z"/>
<path d="M445 1106 c-25 -18 -13 -44 25 -57 16 -6 30 -15 30 -19 0 -16 -25
-17 -43 -2 -21 19 -35 8 -17 -13 8 -10 25 -15 44 -13 26 2 31 7 31 28 0 17 -8
29 -27 38 -30 14 -37 32 -14 32 8 0 17 -8 20 -17 5 -13 9 -14 19 -4 9 10 8 15
-7 27 -25 18 -37 18 -61 0z"/>
<path d="M628 1097 c-30 -32 -38 -34 -38 -7 0 11 -4 20 -10 20 -5 0 -10 -25
-10 -55 0 -53 15 -77 22 -33 4 31 23 33 36 3 6 -14 19 -25 28 -25 13 0 13 5
-5 33 -19 30 -19 35 -5 49 9 9 14 22 12 29 -3 10 -12 5 -30 -14z"/>
<path d="M890 1100 c-37 -37 -19 -100 28 -100 31 0 52 16 52 39 0 12 -3 11
-18 -2 -24 -22 -52 -22 -53 1 -4 49 16 70 42 46 20 -18 29 -18 29 1 0 14 -29
35 -49 35 -6 0 -20 -9 -31 -20z"/>
<path d="M710 1055 c0 -41 4 -55 14 -55 10 0 13 9 10 33 -4 24 -2 28 5 17 6
-8 11 -23 11 -32 0 -31 29 -20 39 15 l9 32 1 -32 c2 -57 21 -36 21 22 0 48 -2
55 -20 55 -15 0 -20 -7 -20 -24 0 -36 -17 -40 -24 -6 -4 21 -11 30 -26 30 -18
0 -20 -6 -20 -55z"/>
<path d="M230 982 c-6 -2 -10 -95 -10 -253 0 -221 2 -254 19 -299 47 -123 160
-200 324 -222 221 -29 410 49 484 200 l28 57 3 258 3 257 -118 1 c-430 3 -724
4 -733 1z m440 -114 c0 23 20 12 20 -12 0 -13 4 -26 9 -28 5 -1 13 -15 16 -30
l7 -28 -86 0 c-70 0 -86 3 -86 15 0 8 4 15 9 15 4 0 6 11 3 25 -3 19 -1 24 11
20 8 -4 17 1 20 9 4 9 13 13 21 10 11 -4 17 3 22 23 l7 28 13 -30 c7 -16 13
-24 14 -17z m-326 -84 c11 -4 16 -19 16 -49 l0 -44 -30 9 c-18 5 -30 5 -30 -1
0 -5 11 -9 24 -9 14 0 28 -5 31 -11 5 -7 -6 -9 -31 -7 -37 3 -39 5 -42 41 -3
30 2 42 20 57 27 23 23 21 42 14z m636 -14 c44 -38 31 -100 -20 -100 -24 0
-30 4 -31 23 -1 16 -2 18 -6 5 -3 -13 -15 -18 -44 -18 -39 0 -39 0 -39 40 0
33 4 42 25 52 19 8 28 8 39 -2 13 -10 18 -9 31 4 20 20 17 20 45 -4z m-556 4
c11 -4 16 -19 16 -50 0 -44 0 -44 -35 -44 -35 0 -35 0 -35 44 0 50 16 65 54
50z m276 -39 c0 -24 -2 -25 -65 -25 -63 0 -65 1 -65 25 0 24 2 25 65 25 63 0
65 -1 65 -25z m-10 -55 c0 -17 -7 -20 -50 -20 -43 0 -50 3 -50 20 0 17 7 20
50 20 43 0 50 -3 50 -20z m-10 -47 c0 -28 -30 -277 -34 -280 -5 -5 -43 281
-39 290 2 4 20 7 39 7 26 0 34 -4 34 -17z"/>
<path d="M977 710 c-3 -11 -1 -20 4 -20 5 0 9 9 9 20 0 11 -2 20 -4 20 -2 0
-6 -9 -9 -20z"/>
<path d="M163 345 c-8 -22 6 -33 17 -15 13 20 12 30 0 30 -6 0 -13 -7 -17 -15z"/>
<path d="M210 265 c0 -8 5 -15 10 -15 6 0 10 7 10 15 0 8 -4 15 -10 15 -5 0
-10 -7 -10 -15z"/>
<path d="M286 205 c-9 -23 -8 -24 14 -22 12 1 19 7 18 16 -4 21 -24 25 -32 6z"/>
<path d="M398 134 c5 -29 8 -30 15 -5 3 11 -1 22 -8 24 -8 4 -10 -3 -7 -19z"/>
<path d="M1090 294 c0 -15 5 -22 13 -18 18 6 19 41 1 41 -8 0 -14 -10 -14 -23z"/>
<path d="M1017 237 c-8 -21 15 -41 31 -25 15 15 16 38 2 38 -5 0 -10 -8 -11
-17 0 -16 -1 -16 -8 1 -6 17 -8 17 -14 3z"/>
<path d="M586 105 c-18 -14 -18 -15 6 -24 14 -5 32 -11 39 -12 22 -4 89 12 89
22 0 28 -101 39 -134 14z"/>
</g>
</svg>
